<svg id="visual" viewBox="0 0 900 600" width="900" height="600" xmlns="http://www.w3.org/2000/svg" xmlns:xlink="http://www.w3.org/1999/xlink" version="1.1"><g transform="translate(450.92452874580425 303.75589075733205)"><path d="M97.6 -133C141.1 -123.9 201.1 -121.5 228.3 -94.7C255.5 -67.8 250 -16.3 226.8 21.1C203.5 58.6 162.6 82 130.2 104.5C97.7 126.9 73.8 148.4 45.5 158C17.3 167.6 -15.3 165.4 -44.9 155.5C-74.5 145.6 -101.1 128.2 -142.6 108.1C-184.1 88 -240.5 65.4 -247.6 34C-254.7 2.6 -212.4 -37.6 -181.6 -73.8C-150.9 -110.1 -131.7 -142.5 -103.3 -158.6C-75 -174.7 -37.5 -174.3 -5.2 -166.2C27 -158.1 54.1 -142.1 97.6 -133" fill="#455c53"></path></g></svg>