<svg width="2095" height="1886" viewBox="0 0 2095 1886" fill="none" xmlns="http://www.w3.org/2000/svg">
<path d="M785 1885.5L830 1811.5L115.5 1286.5L130 1264.5L0 1304.5V1885.5H785Z" fill="#824AB8"/>
<path d="M1151 763L920 224.5L130 1264.5C731.751 1120.29 996.745 1021.03 1151 763Z" fill="#824AB8"/>
<path d="M1088.5 0L920 224.5L1151 763L1382 597C1307.21 370.432 1311.86 240.114 1429 0H1088.5Z" fill="#351D49"/>
<path d="M1382 597L1151 763L1356.5 1246.5C1637.65 1084.83 1798.16 1063.17 2094.5 1264.5V763C1842.68 699.755 1696.19 768.918 1429 1008.5C1405.98 842.941 1397.46 751.713 1382 597Z" fill="#170A18"/>
<path d="M1429 0C1311.86 240.114 1307.21 370.432 1382 597L2033 0H1429Z" fill="#97F9F9"/>
<path d="M2033 0L1382 597C1397.46 751.713 1405.98 842.941 1429 1008.5C1696.19 768.918 1842.68 699.755 2094.5 763V0H2033Z" fill="#824AB8"/>
<path d="M920 224.5L821.5 0H533L0 430.5V1304.5L130 1264.5L920 224.5Z" fill="#170A18"/>
<path d="M925.5 1885.5L830 1811.5L785 1885.5H925.5Z" fill="#170A18"/>
<path d="M1629 1885.5L1356.5 1246.5C1026.07 1478.94 925.122 1601.29 830 1811.5L925.5 1885.5H1629Z" fill="#351D49"/>
<path fill-rule="evenodd" clip-rule="evenodd" d="M1151 763C996.745 1021.03 731.751 1120.29 130 1264.5L115.5 1286.5L830 1811.5C925.122 1601.29 1026.07 1478.94 1356.5 1246.5L1151 763Z" fill="#97F9F9"/>
<path d="M2094.5 1264.5C1798.16 1063.17 1637.65 1084.83 1356.5 1246.5L1629 1885.5H2094.5V1264.5Z" fill="#E4B363"/>
<path d="M0 430.5L533 0H0V430.5Z" fill="#E4B363"/>
<path d="M821.5 0L920 224.5L1088.5 0H821.5Z" fill="#E4B363"/>
</svg>
