<svg width="1097" height="1087" viewBox="0 0 1097 1087" fill="none" xmlns="http://www.w3.org/2000/svg">
<path d="M422 0H0C84.398 291.179 164.292 408.434 422 455V0Z" fill="#824AB8"/>
<path d="M422 455C164.292 408.434 84.398 291.179 0 0V654.5C255.894 692.228 346.68 789.338 422 1087V678.5V455Z" fill="#97F9F9"/>
<path d="M0 1087H422C346.68 789.338 255.894 692.228 0 654.5V1087Z" fill="#170A18"/>
<path fill-rule="evenodd" clip-rule="evenodd" d="M422 0V455V678.5H559.5H1097V0H422ZM767 513C874.696 513 962 425.696 962 318C962 210.304 874.696 123 767 123C659.304 123 572 210.304 572 318C572 425.696 659.304 513 767 513Z" fill="#351D49"/>
<path d="M839 318.5C839 358.541 806.541 391 766.5 391C726.459 391 694 358.541 694 318.5C694 278.459 726.459 246 766.5 246C806.541 246 839 278.459 839 318.5Z" fill="#E4B363"/>
<path d="M1097 1087V678.5H559.5V776.5H693V884.5H829V992H959V1087H1097Z" fill="#824AB8"/>
<path d="M422 678.5V1087H959V992H829V884.5H693V776.5H559.5V678.5H422Z" fill="#E4B363"/>
</svg>
