<svg id="visual" viewBox="0 0 900 600" width="900" height="600" xmlns="http://www.w3.org/2000/svg" xmlns:xlink="http://www.w3.org/1999/xlink" version="1.1"><g transform="translate(475.8753091881691 321.1138094352694)"><path d="M98.6 -157C137.5 -128.5 185.2 -117.4 198.7 -90.1C212.3 -62.7 191.8 -19 171.9 15.1C151.9 49.2 132.7 73.7 113.3 100.8C93.9 127.9 74.4 157.5 45.7 174.7C16.9 191.9 -21.1 196.7 -56.7 188.4C-92.3 180.2 -125.5 158.8 -165.2 132.4C-204.8 105.9 -250.9 74.3 -254.6 37.6C-258.3 0.9 -219.7 -40.9 -187.2 -74.5C-154.7 -108.1 -128.5 -133.6 -98.3 -165.9C-68.1 -198.3 -34.1 -237.7 -2.1 -234.4C29.9 -231.2 59.8 -185.4 98.6 -157" fill="#91c7b1"></path></g></svg>