<svg id="visual" viewBox="0 0 900 600" width="900" height="600" xmlns="http://www.w3.org/2000/svg" xmlns:xlink="http://www.w3.org/1999/xlink" version="1.1"><rect x="0" y="0" width="900" height="600" fill="#221c1d"></rect><defs><linearGradient id="grad1_0" x1="33.3%" y1="0%" x2="100%" y2="100%"><stop offset="20%" stop-color="#221c1d" stop-opacity="1"></stop><stop offset="80%" stop-color="#221c1d" stop-opacity="1"></stop></linearGradient></defs><defs><linearGradient id="grad2_0" x1="0%" y1="0%" x2="66.7%" y2="100%"><stop offset="20%" stop-color="#221c1d" stop-opacity="1"></stop><stop offset="80%" stop-color="#221c1d" stop-opacity="1"></stop></linearGradient></defs><g transform="translate(900, 0)"><path d="M0 486.7C-67.9 485 -135.8 483.3 -186.3 449.7C-236.7 416.1 -269.6 350.5 -297.7 297.7C-325.8 244.9 -349 204.8 -379.7 157.3C-410.4 109.8 -448.6 54.9 -486.7 0L0 0Z" fill="#393031"></path></g><g transform="translate(0, 600)"><path d="M0 -486.7C54.7 -449 109.4 -411.2 158 -381.6C206.7 -351.9 249.3 -330.5 301.9 -301.9C354.6 -273.4 417.2 -237.8 449.7 -186.3C482.2 -134.8 484.5 -67.4 486.7 0L0 0Z" fill="#393031"></path></g></svg>