<svg id="visual" viewBox="0 0 900 600" width="900" height="600" xmlns="http://www.w3.org/2000/svg" xmlns:xlink="http://www.w3.org/1999/xlink" version="1.1"><rect x="0" y="0" width="900" height="600" fill="#221c1d"></rect><defs><linearGradient id="grad1_0" x1="33.3%" y1="0%" x2="100%" y2="100%"><stop offset="20%" stop-color="#221c1d" stop-opacity="1"></stop><stop offset="80%" stop-color="#221c1d" stop-opacity="1"></stop></linearGradient></defs><defs><linearGradient id="grad2_0" x1="0%" y1="0%" x2="66.7%" y2="100%"><stop offset="20%" stop-color="#221c1d" stop-opacity="1"></stop><stop offset="80%" stop-color="#221c1d" stop-opacity="1"></stop></linearGradient></defs><g transform="translate(900, 0)"><path d="M0 486.7C-27.9 479.6 -55.7 472.5 -81.3 460.9C-106.8 449.2 -130 433.1 -153.2 421C-176.5 408.9 -199.8 400.9 -228.5 395.8C-257.2 390.6 -291.3 388.4 -309.2 368.5C-327.1 348.6 -328.8 311.1 -334.8 280.9C-340.7 250.7 -350.8 227.9 -353.3 204C-355.9 180.1 -350.9 155.3 -375.9 136.8C-400.9 118.3 -455.9 106.3 -479.4 84.5C-502.8 62.8 -494.8 31.4 -486.7 0L0 0Z" fill="#393031"></path></g><g transform="translate(0, 600)"><path d="M0 -486.7C26.3 -477.7 52.5 -468.6 82.7 -468.8C112.8 -468.9 146.9 -478.4 165.2 -453.9C183.5 -429.4 186.2 -371 196 -339.5C205.8 -308 222.9 -303.5 258.4 -307.9C293.9 -312.4 347.7 -325.9 372.9 -312.9C398 -299.8 394.4 -260.2 395.8 -228.5C397.2 -196.8 403.6 -173.1 410.6 -149.5C417.7 -125.8 425.4 -102.2 438.2 -77.3C451 -52.4 468.9 -26.2 486.7 0L0 0Z" fill="#393031"></path></g></svg>