<svg width="1512" height="450" viewBox="0 0 1512 450" fill="none" xmlns="http://www.w3.org/2000/svg">
<g filter="url(#filter0_f_1_31)">
<path d="M1369.11 3C1375.3 3.50655 1384.91 20.5198 1365.92 16.0747C1353.17 13.0897 1334.48 15.8897 1322.04 17.7018C1311.07 19.2995 1298.04 18.0111 1287.73 21.014C1283.57 22.227 1275.31 22.8736 1270.98 22.8736C1268.35 22.8736 1253.77 25.1912 1252.98 24.7331C1250.79 23.4533 1251.08 15.6767 1247.84 15.5517C1243.08 15.368 1235.06 14.5209 1231.88 17.1207C1230.69 18.1026 1220.92 22.0727 1220.71 19.7356C1220.42 16.5112 1220.41 10.9313 1219.03 7.76501C1217.93 5.24073 1207.54 5.24073 1206.44 7.76501C1205.76 9.32766 1197.94 18.9033 1196.78 12.4138C1195.79 6.88999 1174.44 -0.441219 1174.44 7.18391C1174.44 11.6249 1176.15 14.6997 1169.65 16.8301C1167.5 17.5356 1164.47 18.2411 1162.38 18.6315C1158.74 19.3128 1159.43 21.4268 1157.6 21.7695C1153.67 22.5043 1151.57 16.3719 1145.72 16.5977C1139.71 16.8292 1139.59 23.0095 1143.32 24.9655C1146.88 26.8288 1140.88 27.0575 1139.33 27.0575C1137.83 27.0575 1131.67 26.0793 1131.44 26.5926C1129.52 30.9951 1134.13 32.0666 1138.09 34.1469C1141.24 35.7969 1152.23 36.7204 1156.18 37.4591C1159.22 38.0293 1169.42 40.2138 1169.65 42.7471C1169.97 46.3147 1172.66 50.069 1179.23 50.069C1184.67 50.069 1184.09 54.2916 1188 56.3448C1191.31 58.0814 1185.61 63.5107 1185.61 65.7586C1185.61 69.8279 1187.2 74.0113 1187.2 77.7874C1187.2 81.7969 1187.2 85.8065 1187.2 89.8161C1187.2 93.9717 1190.4 96.8538 1190.4 100.799C1190.4 104.808 1190.4 108.818 1190.4 112.828C1190.4 119.74 1188.14 116.613 1180.11 118.116C1175.12 119.05 1176.03 125.59 1176.03 127.994C1176.03 130.299 1175.59 138.321 1172.49 133.747C1167.71 126.695 1167.69 118.057 1153.69 118.057C1143.72 118.057 1131.93 125.459 1137.74 132.12C1139.95 134.66 1144.34 138.111 1146.96 140.255C1150.25 142.955 1141.78 140.767 1140.93 140.488C1137.29 139.295 1132.13 136.875 1128.96 135.258C1125.24 133.361 1119.62 127.471 1114.6 127.471C1109.25 127.471 1103.41 130.706 1106.18 134.793C1111.35 142.422 1123.17 144.539 1131 149.669C1134.85 152.195 1140.08 154.285 1131.27 153.563C1126.65 153.185 1123.01 150.635 1118.59 150.483C1115.42 150.373 1112.19 150.483 1109.01 150.483C1096.73 150.483 1098.71 167.346 1110.61 168.264C1114.66 168.577 1121.31 170.864 1125.33 168.497C1127.94 166.958 1136.91 163.713 1140.22 163.093C1149.72 161.313 1161.67 166.715 1161.67 173.029C1161.67 183.122 1163.27 192.917 1163.27 202.782C1163.27 204.987 1163.19 212.993 1165.66 214.287C1170.62 216.887 1169.24 222.655 1162.91 222.655C1156.59 222.655 1129.54 224.701 1127.37 222.132C1118.99 212.25 1127.88 210.103 1141.73 210.103C1148.24 210.103 1153.9 209.361 1150.15 203.828C1146.87 198.989 1141.58 201.784 1135.43 200.632C1129.19 199.462 1137.04 192.645 1128.16 192.322C1122.09 192.101 1115.9 192.322 1109.81 192.322C1107.45 192.322 1095.53 188.996 1094.74 190.811C1093.67 193.262 1093.64 200.122 1095.89 201.968C1097.33 203.142 1098.41 204.874 1095.45 204.874C1090.42 204.874 1091.99 205.432 1089.07 206.966C1086.87 208.116 1089.71 210.789 1087.92 211.963C1086.26 213.047 1082.57 213.241 1080.29 213.241C1073.84 213.241 1070.96 210.103 1064.34 210.103C1062.05 210.103 1050.58 207.394 1050.06 208.593C1048.87 211.336 1042.16 212.807 1042 215.566C1041.85 217.92 1042 220.299 1042 222.655C1042 225.29 1044.63 230.303 1049.18 230.965C1055.85 231.936 1060.21 230.015 1064.34 234.742C1068.91 239.994 1063.03 241.54 1057.6 244.388C1051.75 247.453 1045.19 243.389 1045.19 250.374C1045.19 254.974 1051.14 253.808 1055.12 255.894C1057.64 257.219 1067.35 257.172 1070.72 257.172C1077.56 257.172 1075.51 262.888 1075.51 266.063C1075.51 270.197 1073.91 274.031 1073.91 278.324C1073.91 281.287 1075.99 290.96 1068.24 285.879C1065.14 283.848 1060.29 280.695 1058.31 278.092C1057.41 276.913 1057.17 274.751 1055.56 273.908C1048.76 270.343 1061.36 267.944 1061.14 267.865C1055.45 265.764 1048.12 263.273 1041.29 264.552C1039.34 264.916 1034.63 271.429 1033.66 272.862C1029.89 278.421 1028.67 277.757 1033.66 283.322C1037.78 287.911 1029.12 286.46 1023.64 286.46C1016.02 286.46 1016.73 290.528 1012.03 284.368C1009.55 281.116 1004.6 274.954 998.113 274.954C985.799 274.954 973.38 274.431 973.38 284.368C973.38 292.362 981.768 298.562 988.982 304.474C993.159 307.896 983.304 310.959 981.358 313.19C977.937 317.115 979.772 323.25 984.195 326.439C991.989 332.059 995.72 336.333 995.72 343.989C995.72 352.005 1000.04 361.78 985.348 363.92C978.192 364.963 974.604 369.709 968.947 372.23C962.282 375.201 960.649 377.097 958.93 382.167C955.746 391.56 949.148 395.957 935.438 399.193C929.345 400.63 925.673 405.072 919.924 406.747C915.853 407.933 909.323 411.88 906.006 413.837C902.018 416.189 895.598 418.875 890.403 420.577C886.129 421.978 877.606 423.817 876.131 427.202C874.454 431.049 867.688 432.975 865.227 436.848C863.126 440.153 859.399 442.942 860.173 446.494C860.994 450.258 865.97 455.049 862.922 459.046C860.632 462.048 855.928 466.763 851.397 468.46C847.394 469.959 841.776 473.845 838.1 476.014C834.069 478.392 827.671 482.224 826.486 485.718C823.533 494.43 812.41 505.923 801.753 511.112C789.017 517.314 777.328 525.263 766.293 532.497C757.848 538.032 743.837 541.921 733.315 545.862C727.691 547.969 725.275 552.88 719.663 555.043C714.059 557.204 708.25 561.385 702.908 564.109C699.747 565.72 695.064 566.542 692.89 568.874C691.23 570.654 687.256 573.489 684.557 574.626C678.022 577.38 669.561 581.214 663.813 584.563C655.342 589.499 648.16 594.505 639.877 600.253C635.067 603.592 628.984 608.246 625.516 612.224C624.262 613.662 622.078 615.515 620.374 616.756C618.184 618.351 618.813 620.651 617.183 621.986C615.397 623.449 614.346 630.276 614.346 632.155C614.346 634.973 609.777 637.622 607.963 640" stroke="url(#paint0_linear_1_31)" stroke-width="2" stroke-linecap="round"/>
<path d="M724.451 443.356C736.739 444.162 751.7 450.428 762.748 454.049C771.617 456.956 786.362 462.184 796.257 462.184C800.566 462.184 809.877 463.363 813.81 464.508C818.286 465.812 824.002 471.092 819.838 474.503C812.831 480.245 799.733 484.48 789.52 487.055C770.269 491.908 755.741 501.237 734.557 504.255C720.978 506.19 707.638 509.364 694.132 511.577C683.125 513.381 674.186 512.781 663.814 516.342C654.25 519.626 644.45 524.637 636.332 528.894C625.306 534.676 605.662 536.913 592.362 539.819C570.394 544.618 549.236 551.69 526.583 555.508C507.007 558.808 489.841 566.18 471.088 570.733C462.294 572.868 452.784 573.203 443.961 574.917C437.057 576.258 427.369 574.891 421.267 577.009C418.7 577.899 416.807 579.587 414.086 580.379C411.967 580.997 407.159 580.874 405.664 581.658C402.239 583.454 398.086 583.487 394.494 585.842C390.617 588.383 387.674 593.623 382.97 595.255C376.133 597.628 369.626 600.245 362.225 602.577C345.51 607.845 325.367 606.564 309.567 613.037C303.524 615.513 295.638 620.014 290.419 623.264C284.448 626.982 275.358 628.321 269.675 631.632C264.978 634.369 261.415 634.548 255.313 634.77C253.005 634.854 239.842 637.544 244.143 638.954" stroke="url(#paint1_linear_1_31)" stroke-width="2" stroke-linecap="round"/>
<path d="M724.451 442.31C730.14 438.954 736.857 436.014 742.801 432.897C747.559 430.401 752.985 426.581 758.67 425.517C764.486 424.427 752.326 416.832 755.655 414.65C760.395 411.543 767.506 408.645 773.12 405.701C776.877 403.731 783.715 399.696 784.999 396.752C786.035 394.374 776.556 388.488 773.208 387.861C759.606 385.314 743.946 387.92 730.036 387.92C721.888 387.92 713.966 391.057 705.302 391.057C697.674 391.057 690.784 388.966 682.962 388.966C678.128 388.966 638.475 389.023 638.282 386.874C637.909 382.715 642.995 383.736 632.786 383.736C626.021 383.736 619.607 382.847 613.106 382.69C603.972 382.468 594.767 382.69 585.624 382.69C577.83 382.69 570.911 383.736 563.284 383.736C555.46 383.736 545.016 382.645 537.753 384.549C524.749 387.959 504.652 385.828 490.591 385.828C471.942 385.828 454.503 384.782 436.337 384.782C427.324 384.782 418.312 384.782 409.299 384.782C400.984 384.782 391.15 386.874 382.97 386.874C365.697 386.874 347.29 387.92 329.513 387.92C313.051 387.92 295.984 386.874 280.047 386.874C276.661 386.874 258.927 384.313 270.472 382.632C278.895 381.405 275.452 374.322 283.238 374.322C292.219 374.322 296.384 369.394 303.894 367.988C307.531 367.307 309.1 365.954 313.556 365.954C316.939 365.954 321.71 366.53 324.726 365.431C328.833 363.936 335.136 356.585 339.088 361.247C342.745 365.562 348.387 368.046 356.64 368.046C364.125 368.046 369.485 365.954 376.587 365.954C380.288 365.954 384.063 366.096 387.757 365.954C390.293 365.856 393.198 364.07 395.735 363.862C399.863 363.524 412.065 355.48 414.529 356.773C420.906 360.117 422.008 360.724 430.841 360.724C446.095 360.724 459.163 358.632 473.925 358.632C490.837 358.632 508.1 359.247 524.987 358.632C531.462 358.396 538.711 356.54 544.934 356.54C552.418 356.54 558.607 357.586 565.678 357.586C569.133 357.586 567.79 354.417 569.667 352.879C570.997 351.79 578.011 352.119 580.039 352.414C587.174 353.454 595.52 357.586 602.379 357.586C611.555 357.586 617.036 354.916 624.808 353.46C628.256 352.815 629.944 350.264 634.293 350.264C638.016 350.264 641.74 350.264 645.463 350.264C649.408 350.264 652.58 351.31 656.633 351.31C660.548 351.31 662.912 353.402 666.207 353.402C675.974 353.402 670.275 346.439 677.466 345.093C685.002 343.681 689.408 346.08 697.324 346.08C700.89 346.08 705.16 344.296 708.493 345.267C711.675 346.194 712.889 348.172 716.472 348.172C724.193 348.172 731.475 347.409 738.812 347.126C741.381 347.027 744.15 336.537 752.819 341.083C758.126 343.866 765.342 344.258 772.322 343.989C775.721 343.857 781.423 338.487 783.846 336.899C788.399 333.915 799.388 335.295 803.881 337.945C809.476 341.246 816.838 334.322 823.384 334.575C825.286 334.648 825.94 336.401 827.374 337.132C829.139 338.032 831.138 337.313 832.958 337.945C836.409 339.142 834.909 342.067 839.341 341.897C842.006 341.794 843.529 337.64 845.37 336.434C848.117 334.633 853.133 334.575 856.894 334.575C865.652 334.575 869.259 331.724 876.397 329.112C881.533 327.233 899.817 322.148 906.006 325.393C919.758 332.605 929.772 320.465 943.062 320.977C946.285 321.101 948.498 323.229 952.636 323.069C955.206 322.97 957.439 321.178 959.374 320.163C965.678 316.858 973.217 320.002 978.168 317.839" stroke="url(#paint2_linear_1_31)" stroke-width="2" stroke-linecap="round"/>
<path d="M274.461 379.552C260.959 379.552 243.789 381.418 230.579 379.494C220.07 377.963 210.958 377.46 199.818 377.46C188.825 377.46 177.833 377.46 166.84 377.46C155.48 377.46 145.505 379.552 134.039 379.552C121.918 379.552 109.664 382.69 97.338 382.69C84.5724 382.69 71.8067 382.69 59.0411 382.69C39.3607 382.69 19.6804 382.69 0 382.69" stroke="url(#paint3_linear_1_31)" stroke-width="2" stroke-linecap="round"/>
<path d="M4.78687 598.161C14.5808 597.519 31.6685 590.917 36.701 585.144C38.7041 582.847 48.2705 583.517 51.8602 583.517C57.1868 583.517 59.8195 579.404 63.4734 577.009C65.6853 575.559 68.421 573.65 70.5654 572.244C72.268 571.128 82.5489 571.419 85.2813 570.907C87.8085 570.434 96.6431 570.702 98.5789 569.687C101.707 568.047 103.22 565.161 106.114 563.644C108.401 562.445 111.699 557.582 111.699 555.799C111.699 552.338 120.771 551.489 124.465 550.278C135.599 546.629 146.102 544.816 158.772 544.816C169.145 544.816 179.517 544.816 189.889 544.816C202.415 544.816 215.004 547.954 227.831 547.954C234.082 547.954 240.092 548.526 245.738 546.676C250.784 545.022 255.411 543.465 260.898 542.666C270.498 541.268 282.087 540.994 292.014 540.632C296.209 540.479 313.15 534.088 305.489 531.218C302.076 529.94 295.102 526.88 293.255 524.943C291.263 522.853 287.619 524.685 292.014 521.805C295.556 519.482 299.674 516.824 303.893 515.064C308.057 513.327 313.495 511.345 318.432 511.345C322.649 511.345 332.906 511.17 336.694 510.066C341.128 508.775 347.107 508.956 351.853 508.265C357.656 507.42 361.627 505.556 367.012 503.791C376.595 500.65 392.526 499.839 403.004 499.839C416.537 499.839 428.447 495.481 441.212 493.621C450.849 492.218 462.439 493.923 472.329 493.563C474.379 493.489 482.323 489.658 478.711 489.379C472.902 488.931 468.612 486.241 461.956 486.241C457.466 486.241 450.104 487.192 446.886 484.731C444.654 483.024 438.863 478.564 442.365 476.014C448.825 471.309 461.845 469.812 470.733 469.506C482.266 469.108 492.407 464.034 504.243 463.172C518.446 462.137 529.609 453.816 544.135 453.816C549.454 453.816 554.773 453.816 560.092 453.816C566.293 453.816 565.891 452.424 570.553 450.678C579.286 447.407 573.8 447.576 569.312 444.635C564.066 441.196 559.597 436.872 554.33 433.42C534.802 420.619 502.882 428.713 478.711 428.713C459.409 428.713 440.457 428.026 421.266 427.667C414.709 427.544 408.127 426.621 401.32 426.621C398.003 426.621 411.752 422.106 414.883 421.623C420.146 420.812 427.581 422.666 432.436 421.158C437.062 419.722 442.294 416.905 445.911 414.534C452.41 410.274 461.69 406.747 471.531 406.747C476.743 406.747 483.981 407.628 488.995 406.689C491.765 406.17 495.984 402.166 498.214 400.704C502.451 397.927 515.488 391.057 521.795 391.057" stroke="url(#paint4_linear_1_31)" stroke-width="2" stroke-linecap="round"/>
<path d="M445.202 413.023C414.3 413.023 384.661 416.708 354.956 421.158C345.789 422.532 337.708 425.133 328.627 426.621C312.488 429.265 295.805 428.713 279.249 428.713C262.79 428.713 246.33 428.713 229.871 428.713C220.337 428.713 206.746 430.021 197.868 427.434C189.648 425.039 163.366 427.412 159.571 422.437" stroke="url(#paint5_linear_1_31)" stroke-width="2" stroke-linecap="round"/>
<path d="M1225.5 52.1609C1218.62 52.1609 1211.63 51.9238 1204.76 52.1609C1198.53 52.3758 1199.59 57.6342 1197.58 60.0057C1192.92 65.5049 1201.32 72.6107 1203.07 77.7873C1207.09 89.6252 1212.74 101.071 1212.74 113.292C1212.74 118.792 1213.89 124.611 1214.33 129.563C1214.67 133.29 1217.52 135.916 1217.52 139.674C1217.52 146.446 1219.27 154.261 1222.66 160.71C1226.22 167.463 1233.48 173.527 1233.48 180.816C1233.48 184.438 1233.48 188.06 1233.48 191.683C1233.48 195.474 1230.29 198.181 1230.29 201.736C1230.29 208.858 1228.26 214.392 1226.3 221.319C1223.18 232.353 1224.43 247.659 1229.49 258.277C1234.37 268.52 1228.38 280.239 1235.08 290.121C1238.85 295.681 1239.36 303.006 1241.37 308.948C1243.41 314.958 1244.65 319.805 1244.65 326.207C1244.65 332.159 1240.29 339.129 1244.3 345.034C1247.96 350.445 1247.84 356.905 1247.84 362.816C1247.84 369.122 1251.03 374.578 1251.03 380.598C1251.03 381.98 1254.31 386.747 1251.03 386.874C1246.55 387.047 1241.96 386.874 1237.47 386.874C1231.32 386.874 1230.29 389.073 1230.29 383.736C1230.29 380.772 1230.29 377.808 1230.29 374.845C1230.29 368.918 1230.29 362.99 1230.29 357.063C1230.29 352.801 1228.12 338.249 1223.11 335.621C1219.75 333.858 1220.71 321.917 1220.71 318.885C1220.71 312.557 1221.8 305.838 1217.88 300.057C1214.54 295.14 1215.82 288.398 1212.38 283.322C1208.44 277.506 1208.36 270.329 1204.4 264.494C1200.84 259.242 1203.16 250.973 1203.16 245.144C1203.16 238.519 1203.16 231.895 1203.16 225.27C1203.16 212.532 1195.18 201.449 1195.18 188.661C1195.18 174.73 1195.18 160.59 1195.18 146.299C1195.18 140.266 1191.99 135.371 1191.99 129.563C1191.99 123.972 1190.4 118.743 1190.4 112.828" stroke="url(#paint6_linear_1_31)" stroke-width="2" stroke-linecap="round"/>
<path d="M1172.84 165.126C1172.84 174.762 1177.63 184.319 1177.63 193.891C1177.63 201.736 1182.42 209.659 1182.42 217.425C1182.42 224.209 1187.2 231.451 1187.2 238.868C1187.2 250.727 1188.7 261.782 1191.9 273.327C1196.03 288.205 1204.76 302.706 1204.76 318.362C1204.76 322.272 1208.17 328.422 1209.9 332.25C1212.07 337.06 1211.56 342.512 1214.69 347.126C1219.95 354.897 1215.93 362.183 1215.93 370.138C1215.93 373.24 1214.59 377.672 1217.52 380.075C1222.25 383.951 1211.98 382.175 1208.84 381.586C1206.25 381.101 1206.35 362.246 1206.35 359.678C1206.35 350.992 1205.62 344.793 1199.17 337.19C1194.71 331.924 1188.8 321.428 1188.8 315.224C1188.8 307.049 1185.61 299.102 1185.61 290.644C1185.61 281.881 1178.95 273.346 1176.12 265.017C1173.56 257.452 1173.51 250.402 1172.84 242.529C1172.25 235.579 1168.06 228.524 1168.06 221.609" stroke="url(#paint7_linear_1_31)" stroke-width="2" stroke-linecap="round"/>
<path d="M1469.64 580.379C1469.64 577.384 1468.22 575.591 1466.1 572.941C1460.53 565.971 1455.73 558.535 1452.09 551.034C1448.21 543.047 1443.58 534.29 1442.43 525.989C1441.97 522.683 1437.51 511.521 1441.28 508.439C1445.06 505.337 1447.3 500.288 1447.3 496.178C1447.3 487.848 1453.69 480.33 1453.69 471.83C1453.69 466.019 1453.69 460.208 1453.69 454.397C1453.69 449.196 1451.85 440.579 1457.23 436.267C1459.76 434.243 1459.16 428.982 1460.78 426.098C1462.73 422.629 1464.16 419.021 1466.45 415.638C1469.69 410.865 1474.44 407.207 1477.98 402.563C1481.09 398.488 1479.22 391.914 1479.22 387.397C1479.22 383.365 1474.4 377.276 1479.57 373.508C1484.42 369.975 1478.6 362.012 1477.53 358.167C1475.76 351.766 1470.52 345.593 1467.69 339.572C1465.49 334.886 1461.67 331.752 1461.67 326.73C1461.67 324.021 1456.72 315.27 1460.42 312.842C1466.18 309.068 1483.18 318.88 1488.79 319.931C1491.77 320.488 1496.65 322.235 1498.72 319.931C1502.21 316.04 1508.11 317.092 1501.56 313.655" stroke="url(#paint8_linear_1_31)" stroke-width="2" stroke-linecap="round"/>
<path d="M1412.2 239.391C1412.2 235.827 1412.2 246.519 1412.2 250.083C1412.2 257.015 1414.97 266.374 1419.38 272.804C1426.38 283.007 1432.11 286.144 1446.51 291.225C1454.9 294.188 1465.02 299.332 1474.43 300.057C1484.37 300.824 1485.89 305.478 1491.98 309.471" stroke="url(#paint9_linear_1_31)" stroke-width="2" stroke-linecap="round"/>
<path d="M1418.58 237.299C1425.84 237.299 1446.49 239.607 1452.45 236.485C1459.43 232.823 1482.21 240.467 1487.2 234.742C1493.23 227.82 1503.61 237.885 1506.35 241.018C1510.11 245.331 1514.19 249.671 1517.52 254.034" stroke="url(#paint10_linear_1_31)" stroke-width="2" stroke-linecap="round"/>
<path d="M1402.63 208.011C1416.64 224.71 1451.43 243.839 1478.86 227.653C1486.05 223.416 1488.79 219.214 1488.79 212.718C1488.79 210.613 1498.95 208 1496.42 206.152C1492.79 203.51 1485.67 200.69 1480.02 200.69C1470.92 200.69 1482.33 198.9 1484.8 198.54C1491.36 197.585 1496.79 195.439 1499.61 191.276C1502.28 187.332 1500.7 187.818 1498.01 185C1495.84 182.719 1487.21 181.435 1494.38 177.678C1506.39 171.381 1506.08 165.299 1498.37 157.572C1494.04 153.238 1491.91 150.483 1483.21 150.483C1476.35 150.483 1469.58 151.107 1464.5 154.434C1458.96 158.068 1442.52 163.519 1442.52 168.787C1442.52 175.844 1437.8 161.268 1436.84 159.838C1434.36 156.117 1430.09 149.298 1429.75 145.253C1429.22 138.975 1421.77 133.785 1421.77 127.994C1421.77 123.089 1419.08 121.859 1411.31 124.333C1403.61 126.785 1395.12 132.392 1389.06 136.362C1384.42 139.406 1384.08 134.793 1379.49 134.793C1374.67 134.793 1371.31 132.701 1365.92 132.701C1358.26 132.701 1361.74 136.885 1355.55 136.885C1352.8 136.885 1350.78 137.235 1348.37 138.163C1345.33 139.335 1348.31 141.691 1346.42 142.928C1345.12 143.779 1341.1 142.33 1340.48 143.742C1339.85 145.196 1341.42 147.249 1338.8 148.158C1336.95 148.8 1333.66 148.391 1331.62 148.391C1327.48 148.391 1329.09 149.985 1326.74 150.425C1325.51 150.656 1321.74 149.575 1321.6 149.669C1319.64 150.956 1320.4 152.271 1316.1 151.296C1310.68 150.065 1304.03 147.345 1298.11 147.345C1292.83 147.345 1286.02 146.942 1290.22 152.052C1294.32 157.047 1301.37 160.925 1304.93 166.172C1307.31 169.681 1310.42 173.361 1312.91 176.632C1314.54 178.772 1306.52 175.271 1306 175.063C1300.01 172.708 1293.83 170.489 1287.73 168.206C1281.13 165.733 1273.63 157.714 1266.1 156.817C1263.22 156.473 1247.84 158.405 1255.82 161.175C1257.61 161.797 1266.48 164.35 1263 166.172C1256.67 169.491 1262.78 172.394 1265.39 174.773C1267.64 176.815 1275.76 181.808 1272.13 184.186C1268.25 186.734 1263.87 189.145 1272.49 190.172C1280.09 191.078 1279.56 191.438 1276.56 194.879C1273.67 198.204 1285.64 197.082 1288.98 198.83C1291.51 200.16 1289.51 199.973 1289.51 201.213C1289.51 201.592 1294.87 202.752 1295.71 203.014C1302.28 205.052 1310.21 207.862 1314.86 211.672C1319.45 215.432 1329.26 216.032 1335.25 218.471C1340.63 220.66 1348.03 222.667 1353.87 223.759C1357.29 224.399 1328.71 242.107 1332.77 245.434C1337.34 249.179 1342.47 254.175 1349.17 256.126C1359.88 259.247 1353.58 269.998 1361.14 274.954C1372.46 282.379 1376.41 256.672 1379.04 252.175C1382.96 245.508 1391.2 253.438 1394.65 254.848C1395.68 255.273 1398.3 252.988 1403.42 252.988C1408.89 252.988 1406.74 249.825 1410.25 247.526C1413.53 245.373 1411.88 241.689 1413.8 238.868C1417.93 232.773 1428.5 232.858 1420.18 224.515C1417.66 221.989 1414.45 218.219 1409.89 217.367C1405.01 216.452 1405.63 213.179 1402.63 212.195" stroke="url(#paint11_linear_1_31)" stroke-width="2" stroke-linecap="round"/>
<path d="M1346.78 273.908C1334.88 273.908 1325.47 272.775 1313.97 271.003C1312.85 270.829 1304.19 271.131 1307.24 268.911C1309.95 266.934 1311.53 264.869 1313.62 262.402C1320.56 254.214 1314.68 243.575 1299.52 243.575C1284.68 243.575 1260.31 241.579 1255.91 254.558C1253.36 262.061 1244.65 269.218 1244.65 277.046C1244.65 280.958 1265.25 281.23 1270.18 281.23C1281.79 281.23 1279.76 284.605 1279.76 291.225C1279.76 299.225 1273.89 310.653 1289.33 314.701C1299.4 317.34 1314.86 319.367 1314.86 327.776C1314.86 334.25 1312.84 342.432 1315.75 348.695C1317.43 352.323 1326.42 362.675 1321.6 366.187C1316.25 370.084 1309.69 374.858 1316.46 379.552C1321.65 383.157 1322.97 387.765 1327.27 391.29C1335.76 398.247 1324.44 408.841 1324.44 415.638C1324.44 423.713 1334.01 430.687 1334.01 439.114C1334.01 442.097 1334.01 445.08 1334.01 448.063C1334.01 451.691 1340.78 455.686 1344.29 458.407C1348.06 461.325 1348.34 467.869 1353.96 469.506C1360.45 471.397 1364.89 475.507 1369.47 469.506C1370.04 468.758 1372.01 463.422 1373.9 464.741C1376.29 466.405 1377.37 470.443 1379.04 472.644C1381.35 475.664 1383.05 472.747 1384.72 476.363C1385.92 478.972 1387.64 481.707 1389.5 484.149C1390.74 485.77 1389.65 479.144 1391.1 482.522C1392.33 485.394 1393.76 487.788 1395.89 490.425C1397.96 492.988 1400.8 488.669 1401.03 487.287C1401.78 482.835 1406.24 484.429 1409.72 486.706C1421.25 494.268 1413.38 484.266 1417.87 484.266C1420.4 484.266 1423.37 488.772 1423.37 483.685C1423.37 482.87 1422.67 477.99 1424.26 477.99C1426.63 477.99 1430.15 481.656 1431.26 478.397C1431.78 476.869 1433.41 475.748 1435.34 474.736C1439.22 472.698 1448.9 473.105 1448.9 469.506" stroke="url(#paint12_linear_1_31)" stroke-width="2" stroke-linecap="round"/>
<path d="M1479.22 400.471C1494.58 400.471 1505.83 404.655 1520.71 404.655" stroke="url(#paint13_linear_1_31)" stroke-width="2" stroke-linecap="round"/>
</g>
<defs>
<filter id="filter0_f_1_31" x="-3" y="-5.34058e-05" width="1526.71" height="643" filterUnits="userSpaceOnUse" color-interpolation-filters="sRGB">
<feFlood flood-opacity="0" result="BackgroundImageFix"/>
<feBlend mode="normal" in="SourceGraphic" in2="BackgroundImageFix" result="shape"/>
<feGaussianBlur stdDeviation="1" result="effect1_foregroundBlur_1_31"/>
</filter>
<linearGradient id="paint0_linear_1_31" x1="992.534" y1="3" x2="992.534" y2="640" gradientUnits="userSpaceOnUse">
<stop stop-color="#97BBF1"/>
<stop offset="1" stop-color="#265BAB"/>
</linearGradient>
<linearGradient id="paint1_linear_1_31" x1="532.284" y1="443.356" x2="532.284" y2="638.954" gradientUnits="userSpaceOnUse">
<stop stop-color="#97BBF1"/>
<stop offset="1" stop-color="#265BAB"/>
</linearGradient>
<linearGradient id="paint2_linear_1_31" x1="622.392" y1="317.839" x2="622.392" y2="442.31" gradientUnits="userSpaceOnUse">
<stop stop-color="#97BBF1"/>
<stop offset="1" stop-color="#265BAB"/>
</linearGradient>
<linearGradient id="paint3_linear_1_31" x1="137.231" y1="377.46" x2="137.231" y2="382.69" gradientUnits="userSpaceOnUse">
<stop stop-color="#97BBF1"/>
<stop offset="1" stop-color="#265BAB"/>
</linearGradient>
<linearGradient id="paint4_linear_1_31" x1="289.986" y1="391.057" x2="289.986" y2="598.161" gradientUnits="userSpaceOnUse">
<stop stop-color="#97BBF1"/>
<stop offset="1" stop-color="#265BAB"/>
</linearGradient>
<linearGradient id="paint5_linear_1_31" x1="302.387" y1="413.023" x2="302.387" y2="429.043" gradientUnits="userSpaceOnUse">
<stop stop-color="#97BBF1"/>
<stop offset="1" stop-color="#265BAB"/>
</linearGradient>
<linearGradient id="paint6_linear_1_31" x1="1221.44" y1="52.0555" x2="1221.44" y2="387.323" gradientUnits="userSpaceOnUse">
<stop stop-color="#97BBF1"/>
<stop offset="1" stop-color="#265BAB"/>
</linearGradient>
<linearGradient id="paint7_linear_1_31" x1="1193.4" y1="165.126" x2="1193.4" y2="382.506" gradientUnits="userSpaceOnUse">
<stop stop-color="#97BBF1"/>
<stop offset="1" stop-color="#265BAB"/>
</linearGradient>
<linearGradient id="paint8_linear_1_31" x1="1472.15" y1="311.982" x2="1472.15" y2="580.379" gradientUnits="userSpaceOnUse">
<stop stop-color="#97BBF1"/>
<stop offset="1" stop-color="#265BAB"/>
</linearGradient>
<linearGradient id="paint9_linear_1_31" x1="1452.09" y1="238.673" x2="1452.09" y2="309.471" gradientUnits="userSpaceOnUse">
<stop stop-color="#97BBF1"/>
<stop offset="1" stop-color="#265BAB"/>
</linearGradient>
<linearGradient id="paint10_linear_1_31" x1="1468.05" y1="232.362" x2="1468.05" y2="254.034" gradientUnits="userSpaceOnUse">
<stop stop-color="#97BBF1"/>
<stop offset="1" stop-color="#265BAB"/>
</linearGradient>
<linearGradient id="paint11_linear_1_31" x1="1378.69" y1="123.093" x2="1378.69" y2="276.292" gradientUnits="userSpaceOnUse">
<stop stop-color="#97BBF1"/>
<stop offset="1" stop-color="#265BAB"/>
</linearGradient>
<linearGradient id="paint12_linear_1_31" x1="1346.78" y1="243.464" x2="1346.78" y2="491.222" gradientUnits="userSpaceOnUse">
<stop stop-color="#97BBF1"/>
<stop offset="1" stop-color="#265BAB"/>
</linearGradient>
<linearGradient id="paint13_linear_1_31" x1="1499.96" y1="400.471" x2="1499.96" y2="404.655" gradientUnits="userSpaceOnUse">
<stop stop-color="#97BBF1"/>
<stop offset="1" stop-color="#265BAB"/>
</linearGradient>
</defs>
</svg>
