<svg width="1888" height="1930" viewBox="0 0 1888 1930" fill="none" xmlns="http://www.w3.org/2000/svg">
<path fill-rule="evenodd" clip-rule="evenodd" d="M594 632H0.5V1302.5H594V959.5V632ZM66 1233V698H526.5V1233H66Z" fill="#97F9F9"/>
<path d="M915 1277C1092.28 1277 1236 1134.85 1236 959.5C1236 784.15 1092.28 642 915 642C737.717 642 594 784.15 594 959.5C594 1134.85 737.717 1277 915 1277Z" fill="#824AB8"/>
<path fill-rule="evenodd" clip-rule="evenodd" d="M1236 1930L917.5 1277.5L594 1930H1236ZM917.5 1495.5L1090.5 1838H753.5L917.5 1495.5Z" fill="#824AB8"/>
<path d="M594 316L917.5 642L1236 316L917.5 0L594 316Z" fill="#351D49"/>
<path d="M1236 0V316V959.5V1273.5H1387C1663.14 1273.5 1887 1049.64 1887 773.5V500C1887 223.858 1663.14 0 1387 0H1236Z" fill="#FF6469"/>
<path d="M1236 1273.5V1930H1887C1896.15 1447.12 1750.75 1304.21 1236 1273.5Z" fill="#E4B363"/>
<path d="M594 1930V1302.5H0.5V1730C0.5 1840.46 90.043 1930 200.5 1930H594Z" fill="#FF5757"/>
<path d="M0.5 632H594V316V0H200.5C90.043 0 0.5 89.5431 0.5 200V632Z" fill="#170A18"/>
</svg>
