<svg width="2770" height="2274" viewBox="0 0 2770 2274" fill="none" xmlns="http://www.w3.org/2000/svg">
<path d="M2770 72.5C2770 112.541 2737.54 145 2697.5 145C2657.46 145 2625 112.541 2625 72.5C2625 32.4594 2657.46 0 2697.5 0C2737.54 0 2770 32.4594 2770 72.5Z" fill="#F7F7F2"/>
<path d="M1048 1973H1470C1394.68 1675.34 1303.89 1578.23 1048 1540.5V1973Z" fill="#306CCE"/>
<path d="M910.5 257.5V666H1447.5V571H1317.5V463.5H1181.5V355.5H1048V257.5H910.5Z" fill="#E2332A"/>
<path d="M2299 257.5H1877C1961.4 548.679 2041.29 665.934 2299 712.5V257.5Z" fill="#306CCE"/>
<path d="M2432.5 1757.5V1349H1895V1447H2028.5V1555H2164.5V1662.5H2294.5V1757.5H2432.5Z" fill="#F9F8F4"/>
<path d="M422 1642C164.292 1595.43 84.398 1478.18 0 1187V1841.5C255.894 1879.23 346.68 1976.34 422 2274V1865.5V1642Z" fill="#FDBF31"/>
<path fill-rule="evenodd" clip-rule="evenodd" d="M0 0V455V678.5H137.5H675V0H0ZM345 513C452.696 513 540 425.696 540 318C540 210.304 452.696 123 345 123C237.304 123 150 210.304 150 318C150 425.696 237.304 513 345 513Z" fill="#BFBEBF"/>
</svg>
